#!OML:ASF F:\VICON\USERDATA\INSTALL\rory3\rory3.ASF
:FULLY-SPECIFIED
:DEGREES
469
root 4.60682 16.1894 2.28589 19.2583 -9.11897 -0.550439
lowerback 8.0286 -0.911125 1.62822
upperback 1.90535 -1.07896 -0.0272005
thorax -2.55968 -0.546407 -0.833896
lowerneck -14.1958 -0.585864 -2.43648
upperneck 35.6526 0.124527 -1.04875
head 14.703 -0.463841 0.00688286
rclavicle -3.8266e-015 1.22253e-014
rhumerus -51.9484 43.6587 -71.6573
rradius 83.4642
rwrist -27.431
rhand -8.09977 -39.731
rfingers 7.12502
rthumb 17.8128 -68.9352
lclavicle -3.8266e-015 1.22253e-014
lhumerus -35.7928 -49.7528 62.876
lradius 74.0396
lwrist 48.3939
lhand -15.374 -24.3661
lfingers 7.12502
lthumb 10.804 5.33604
rfemur -70.6718 -2.47414 21.3932
rtibia 35.435
rfoot 35.7288 -2.93447
rtoes 3.75793
lfemur -48.1508 -1.18234 -29.5872
ltibia 53.6184
lfoot -22.7552 6.24051
ltoes 14.6079
470
root 4.59986 16.1667 2.27849 19.2691 -9.2112 -0.471317
lowerback 8.28526 -0.868862 1.43151
upperback 1.91421 -1.03455 -0.0159667
thorax -2.68824 -0.523964 -0.712736
lowerneck -14.0423 -0.602534 -2.36867
upperneck 35.5366 0.142298 -1.23943
head 14.6139 -0.470735 -0.0794115
rclavicle 2.99668e-014 -1.23246e-014
rhumerus -52.1027 43.8568 -71.356
rradius 83.3111
rwrist -27.6157
rhand -8.07838 -40.1398
rfingers 7.12502
rthumb 17.8334 -69.3421
lclavicle 2.99668e-014 -1.23246e-014
lhumerus -35.9659 -50.087 62.6634
lradius 73.841
lwrist 48.4001
lhand -15.6877 -24.2517
lfingers 7.12502
lthumb 10.5014 5.466
rfemur -70.8037 -2.1883 21.1105
rtibia 35.4493
rfoot 36.2659 -3.55605
rtoes 5.34967
lfemur -48.3621 -0.987214 -29.7117
ltibia 53.8491
lfoot -22.8095 5.91089
ltoes 15.4899
471
root 4.60762 16.1821 2.29197 19.4368 -9.04769 -0.677836
lowerback 7.90692 -0.929538 1.81506
upperback 2.06136 -1.09014 0.0521424
thorax -2.33312 -0.550247 -0.859161
lowerneck -14.0951 -0.65217 -2.59055
upperneck 35.4299 0.0524645 -1.00638
head 14.5769 -0.505427 0.0417421
rclavicle -7.45443e-016 -5.46658e-015
rhumerus -52.0472 44.107 -70.9543
rradius 83.1109
rwrist -27.7192
rhand -7.72354 -40.6944
rfingers 7.12502
rthumb 18.1748 -69.8652
lclavicle -7.45443e-016 -5.46658e-015
lhumerus -35.8994 -50.2572 62.2513
lradius 73.6671
lwrist 48.671
lhand -15.9578 -24.6563
lfingers 7.12502
lthumb 10.2408 5.07437
rfemur -70.8593 -2.54666 21.6869
rtibia 35.4328
rfoot 37.6676 -2.86502
rtoes 8.65845
lfemur -48.4549 -0.936234 -29.5388
ltibia 53.9332
lfoot -22.8991 5.75256
ltoes 15.6
472
root 4.60022 16.1623 2.28117 19.4221 -9.14373 -0.515936
lowerback 8.24124 -0.916562 1.51586
upperback 2.12597 -1.09171 0.0397131
thorax -2.44674 -0.550266 -0.69932
lowerneck -14.2704 -0.660826 -2.64607
upperneck 35.4382 0.00487456 -0.846047
head 14.621 -0.511739 0.109182
rclavicle 2.66868e-014 -1.63003e-014
rhumerus -51.8985 44.3036 -70.6163
rradius 82.731
rwrist -27.6836
rhand -7.21023 -41.3987
rfingers 7.12502
rthumb 18.6686 -70.5229
lclavicle 2.66868e-014 -1.63003e-014
lhumerus -35.6865 -50.4963 61.7233
lradius 73.3629
lwrist 49.0013
lhand -16.0899 -24.9863
lfingers 7.12502
lthumb 10.1134 4.75067
rfemur -70.971 -2.28139 21.2916
rtibia 35.4536
rfoot 37.8224 -3.10357
rtoes 8.77565
lfemur -48.6264 -0.767476 -29.7469
ltibia 54.0416
lfoot -22.8102 5.68304
ltoes 15.3527
473
root 4.59906 16.1627 2.27598 19.4855 -9.13801 -0.493579
lowerback 8.39191 -0.910291 1.49893
upperback 2.17675 -1.08298 0.0265985
thorax -2.47753 -0.545795 -0.702434
lowerneck -14.3559 -0.67565 -2.40272
upperneck 35.3975 0.00758346 -1.10868
head 14.6214 -0.513031 -0.0414679
rclavicle -2.23633e-015 -1.98785e-015
rhumerus -51.8318 44.3589 -70.356
rradius 82.3339
rwrist -27.7134
rhand -7.21384 -41.2989
rfingers 7.12502
rthumb 18.6651 -70.4234
lclavicle -2.23633e-015 -1.98785e-015
lhumerus -35.5977 -50.6288 61.2711
lradius 73.1138
lwrist 48.9328
lhand -15.8546 -24.8228
lfingers 7.12502
lthumb 10.3405 4.90299
rfemur -71.019 -2.20037 21.1726
rtibia 35.4028
rfoot 37.7476 -3.52577
rtoes 9.24477
lfemur -48.7309 -0.659049 -29.8052
ltibia 54.0309
lfoot -22.706 5.57508
ltoes 15.2389
474
root 4.59984 16.173 2.2729 19.5704 -9.08415 -0.519542
lowerback 8.45073 -0.9086 1.58137
upperback 2.19836 -1.0727 0.0315276
thorax -2.48891 -0.540972 -0.74405
lowerneck -14.0469 -0.705628 -2.41798
upperneck 35.0436 -0.0280494 -1.15742
head 14.3869 -0.530935 -0.0605329
rclavicle -1.98785e-015 1.09332e-015
rhumerus -51.9421 44.3581 -70.0903
rradius 82.1337
rwrist -27.8513
rhand -7.18461 -41.1247
rfingers 7.12502
rthumb 18.6933 -70.2465
lclavicle -1.98785e-015 1.09332e-015
lhumerus -35.534 -50.7748 60.8512
lradius 72.922
lwrist 48.7366
lhand -15.5002 -24.7725
lfingers 7.12502
lthumb 10.6823 4.9359
rfemur -71.0714 -2.21565 21.1865
rtibia 35.3771
rfoot 37.736 -3.43437
rtoes 9.11629
lfemur -48.8154 -0.588706 -29.8004
ltibia 54.0197
lfoot -22.6139 5.50722
ltoes 14.7671
475
root 4.59961 16.1757 2.2713 19.6181 -9.09353 -0.523983
lowerback 8.52156 -0.890581 1.60475
upperback 2.19729 -1.04563 0.0267224
thorax -2.52906 -0.527901 -0.763953
lowerneck -13.3497 -0.671689 -2.52391
upperneck 34.3538 -0.0483854 -0.962325
head 13.9156 -0.516471 0.0412235
rclavicle 3.18552e-014 -2.27608e-014
rhumerus -52.1408 44.3175 -69.8401
rradius 82.0288
rwrist -27.8321
rhand -6.91697 -41.3896
rfingers 7.12502
rthumb 18.9507 -70.4864
lclavicle 3.18552e-014 -2.27608e-014
lhumerus -35.4989 -51.3602 60.4815
lradius 72.7105
lwrist 48.9592
lhand -15.2931 -24.4899
lfingers 7.12502
lthumb 10.882 5.20818
rfemur -71.1136 -2.19101 21.1784
rtibia 35.3514
rfoot 37.8729 -2.9005
rtoes 8.45206
lfemur -48.8836 -0.477052 -29.8325
ltibia 54.0061
lfoot -22.5081 5.51042
ltoes 13.9508
476
root 4.60031 16.1748 2.27126 19.6417 -9.08828 -0.531916
lowerback 8.61854 -0.887949 1.63845
upperback 2.20309 -1.03752 0.0231666
thorax -2.57722 -0.52431 -0.786066
lowerneck -13.2045 -0.644853 -2.3547
upperneck 34.1986 -0.0374425 -1.04017
head 13.8128 -0.497988 -0.0166086
rclavicle 8.89561e-015 5.36719e-015
rhumerus -52.321 44.3707 -69.6537
rradius 81.8199
rwrist -27.6993
rhand -7.00161 -41.4682
rfingers 7.12502
rthumb 18.8693 -70.573
lclavicle 8.89561e-015 5.36719e-015
lhumerus -35.5958 -51.9215 60.2278
lradius 72.5453
lwrist 49.1452
lhand -14.8672 -23.7342
lfingers 7.12502
lthumb 11.2928 5.94182
rfemur -71.1454 -2.19834 21.1871
rtibia 35.3559
rfoot 37.9174 -2.63597
rtoes 8.11827
lfemur -48.9051 -0.37807 -29.8669
ltibia 53.9945
lfoot -22.4604 5.50266
ltoes 13.5634
477
root 4.60087 16.1708 2.27239 19.6169 -9.05726 -0.514365
lowerback 8.78861 -0.908279 1.56824
upperback 2.26682 -1.06609 0.0852537
thorax -2.60383 -0.537973 -0.677484
lowerneck -13.7386 -0.730845 -2.48686
upperneck 34.6789 -0.140656 -0.931897
head 14.1503 -0.552024 0.0291873
rclavicle 3.8763e-015 -1.73937e-014
rhumerus -52.3078 44.6401 -69.3427
rradius 81.5037
rwrist -27.7442
rhand -7.1438 -41.7052
rfingers 7.12502
rthumb 18.7325 -70.8233
lclavicle 3.8763e-015 -1.73937e-014
lhumerus -35.698 -52.0427 60.0493
lradius 72.3641
lwrist 48.9389
lhand -15.212 -23.9265
lfingers 7.12502
lthumb 10.9603 5.76736
rfemur -71.1771 -2.2525 21.1876
rtibia 35.436
rfoot 37.8566 -2.33716
rtoes 7.53997
lfemur -48.8663 -0.361909 -29.9008
ltibia 53.9903
lfoot -22.5139 5.47553
ltoes 13.7019
478
root 4.60102 16.1711 2.27256 19.5632 -9.11591 -0.398811
lowerback 8.94727 -0.884698 1.26596
upperback 2.37321 -1.05803 0.15657
thorax -2.57478 -0.532124 -0.433509
lowerneck -13.9517 -0.825014 -2.8446
upperneck 34.7989 -0.279223 -0.608221
head 14.2566 -0.616027 0.200172
rclavicle -5.81445e-015 -2.65378e-014
rhumerus -52.0707 44.7813 -68.8171
rradius 81.1826
rwrist -27.7321
rhand -6.89818 -42.2791
rfingers 7.12502
rthumb 18.9687 -71.3742
lclavicle -5.81445e-015 -2.65378e-014
lhumerus -35.6875 -52.1622 59.8194
lradius 72.1462
lwrist 48.6981
lhand -16.0336 -24.7577
lfingers 7.12502
lthumb 10.1678 4.97662
rfemur -71.2113 -2.25641 21.0513
rtibia 35.5703
rfoot 36.5722 -3.92449
rtoes 7.4913
lfemur -48.8024 -0.362111 -30.0296
ltibia 53.9548
lfoot -22.569 5.39838
ltoes 13.4454
479
root 4.60003 16.1688 2.26882 19.5728 -9.26281 -0.123893
lowerback 9.08537 -0.833108 0.845331
upperback 2.37612 -1.02739 0.114626
thorax -2.64123 -0.515491 -0.241862
lowerneck -13.6572 -0.832736 -2.81476
upperneck 34.5229 -0.279293 -0.702317
head 14.0647 -0.620503 0.159222
rclavicle -2.03257e-014 3.03644e-014
rhumerus -52.0822 44.7929 -68.5014
rradius 80.9312
rwrist -27.3268
rhand -6.75169 -42.2406
rfingers 7.12502
rthumb 19.1096 -71.3218
lclavicle -2.03257e-014 3.03644e-014
lhumerus -35.7413 -52.552 59.5466
lradius 71.9798
lwrist 48.6472
lhand -15.9375 -24.8874
lfingers 7.12502
lthumb 10.2605 4.84232
rfemur -71.3706 -2.2176 20.6963
rtibia 35.7166
rfoot 37.7673 -2.32723
rtoes 7.2814
lfemur -48.8374 -0.365791 -30.3429
ltibia 53.9171
lfoot -22.5477 5.36711
ltoes 12.9646
